<svg id="Capa_1" enable-background="new 0 0 512 512" height="512" viewBox="0 0 512 512" width="512" xmlns="http://www.w3.org/2000/svg"><g><path d="m467 271h-151c-24.813 0-45 20.187-45 45s20.187 45 45 45h151c24.813 0 45-20.187 45-45s-20.187-45-45-45z"/><path d="m196 151h-151c-24.813 0-45 20.187-45 45s20.187 45 45 45h151c24.813 0 45-20.187 45-45s-20.187-45-45-45z"/><path d="m316 241c24.813 0 45-20.187 45-45v-151c0-24.813-20.187-45-45-45s-45 20.187-45 45v151c0 24.813 20.187 45 45 45z"/><path d="m196 271c-24.813 0-45 20.187-45 45v151c0 24.813 20.187 45 45 45s45-20.187 45-45v-151c0-24.813-20.187-45-45-45z"/><path d="m407 241h45c33.084 0 60-26.916 60-60s-26.916-60-60-60-60 26.916-60 60v45c0 8.284 6.716 15 15 15z"/><path d="m105 271h-45c-33.084 0-60 26.916-60 60s26.916 60 60 60 60-26.916 60-60v-45c0-8.284-6.716-15-15-15z"/><path d="m181 0c-33.084 0-60 26.916-60 60s26.916 60 60 60h45c8.284 0 15-6.716 15-15v-45c0-33.084-26.916-60-60-60z"/><path d="m331 392h-45c-8.284 0-15 6.716-15 15v45c0 33.084 26.916 60 60 60s60-26.916 60-60-26.916-60-60-60z"/></g></svg>